{
    "asset" : {
        "generator" : "Khronos glTF Blender I/O v1.7.33",
        "version" : "2.0"
    },
    "scene" : 0,
    "scenes" : [
        {
            "name" : "Scene",
            "nodes" : [
                0
            ]
        }
    ],
    "nodes" : [
        {
            "mesh" : 0,
            "name" : "Animated Shirt",
            "scale" : [
                4.338108062744141,
                4.338108062744141,
                4.338108062744141
            ]
        }
    ],
    "animations" : [
        {
            "channels" : [
                {
                    "sampler" : 0,
                    "target" : {
                        "node" : 0,
                        "path" : "rotation"
                    }
                }
            ],
            "name" : "Animated ShirtAction",
            "samplers" : [
                {
                    "input" : 8,
                    "interpolation" : "LINEAR",
                    "output" : 9
                }
            ]
        }
    ],
    "materials" : [
        {
            "doubleSided" : true,
            "name" : "Shirt Texture",
            "pbrMetallicRoughness" : {
                "baseColorTexture" : {
                    "index" : 0
                },
                "metallicFactor" : 0,
                "roughnessFactor" : 0.767123281955719
            }
        },
        {
            "doubleSided" : true,
            "name" : "Material",
            "pbrMetallicRoughness" : {
                "baseColorFactor" : [
                    0.6239607930183411,
                    0,
                    0,
                    1
                ],
                "metallicFactor" : 0,
                "roughnessFactor" : 0.5
            }
        }
    ],
    "meshes" : [
        {
            "name" : "Shirt",
            "primitives" : [
                {
                    "attributes" : {
                        "POSITION" : 0,
                        "NORMAL" : 1,
                        "TEXCOORD_0" : 2
                    },
                    "indices" : 3,
                    "material" : 0
                },
                {
                    "attributes" : {
                        "POSITION" : 4,
                        "NORMAL" : 5,
                        "TEXCOORD_0" : 6
                    },
                    "indices" : 7,
                    "material" : 1
                }
            ]
        }
    ],
    "textures" : [
        {
            "sampler" : 0,
            "source" : 0
        }
    ],
    "images" : [
        {
            "mimeType" : "image/png",
            "name" : "T-shirt second",
            "uri" : "T-shirt%20second.png"
        }
    ],
    "accessors" : [
        {
            "bufferView" : 0,
            "componentType" : 5126,
            "count" : 614391,
            "max" : [
                0.33299267292022705,
                0.34621667861938477,
                0.23039111495018005
            ],
            "min" : [
                -0.34940198063850403,
                -0.3865998387336731,
                -0.14541122317314148
            ],
            "type" : "VEC3"
        },
        {
            "bufferView" : 1,
            "componentType" : 5126,
            "count" : 614391,
            "type" : "VEC3"
        },
        {
            "bufferView" : 2,
            "componentType" : 5126,
            "count" : 614391,
            "type" : "VEC2"
        },
        {
            "bufferView" : 3,
            "componentType" : 5125,
            "count" : 3217539,
            "type" : "SCALAR"
        },
        {
            "bufferView" : 4,
            "componentType" : 5126,
            "count" : 8385,
            "max" : [
                0.3273923397064209,
                0.33626294136047363,
                0.2274988293647766
            ],
            "min" : [
                -0.3424760699272156,
                -0.36552542448043823,
                -0.1408803015947342
            ],
            "type" : "VEC3"
        },
        {
            "bufferView" : 5,
            "componentType" : 5126,
            "count" : 8385,
            "type" : "VEC3"
        },
        {
            "bufferView" : 6,
            "componentType" : 5126,
            "count" : 8385,
            "type" : "VEC2"
        },
        {
            "bufferView" : 7,
            "componentType" : 5123,
            "count" : 34167,
            "type" : "SCALAR"
        },
        {
            "bufferView" : 8,
            "componentType" : 5126,
            "count" : 251,
            "max" : [
                8.333333333333334
            ],
            "min" : [
                0
            ],
            "type" : "SCALAR"
        },
        {
            "bufferView" : 9,
            "componentType" : 5126,
            "count" : 251,
            "type" : "VEC4"
        }
    ],
    "bufferViews" : [
        {
            "buffer" : 0,
            "byteLength" : 7372692,
            "byteOffset" : 0
        },
        {
            "buffer" : 0,
            "byteLength" : 7372692,
            "byteOffset" : 7372692
        },
        {
            "buffer" : 0,
            "byteLength" : 4915128,
            "byteOffset" : 14745384
        },
        {
            "buffer" : 0,
            "byteLength" : 12870156,
            "byteOffset" : 19660512
        },
        {
            "buffer" : 0,
            "byteLength" : 100620,
            "byteOffset" : 32530668
        },
        {
            "buffer" : 0,
            "byteLength" : 100620,
            "byteOffset" : 32631288
        },
        {
            "buffer" : 0,
            "byteLength" : 67080,
            "byteOffset" : 32731908
        },
        {
            "buffer" : 0,
            "byteLength" : 68334,
            "byteOffset" : 32798988
        },
        {
            "buffer" : 0,
            "byteLength" : 1004,
            "byteOffset" : 32867324
        },
        {
            "buffer" : 0,
            "byteLength" : 4016,
            "byteOffset" : 32868328
        }
    ],
    "samplers" : [
        {
            "magFilter" : 9729,
            "minFilter" : 9987
        }
    ],
    "buffers" : [
        {
            "byteLength" : 32872344,
            "uri" : "GedraBlenderPivotAdjusted.bin"
        }
    ]
}
